<svg width="183" height="232" viewBox="0 0 183 232" fill="none" xmlns="http://www.w3.org/2000/svg">
<path d="M114.807 149.755L150.315 115.496L151.863 113.727C153.55 119.141 153.145 126.128 149.527 133.226C148.123 136.063 144.794 139.074 142.414 141.623L132.759 150.965L114.807 149.755Z" fill="#F9F9F9" stroke="#142533" stroke-miterlimit="10" stroke-linecap="round" stroke-linejoin="round"/>
<path d="M97.4805 141.766L106.207 149.191L142.44 151.814L131.785 144.454L97.4805 141.766Z" fill="#142533" stroke="#F9F9F9" stroke-miterlimit="10" stroke-linecap="round" stroke-linejoin="round"/>
<path d="M171.712 4.26011L131.781 144.347L97.4805 141.765L137.627 4.88994C137.72 4.45763 138.141 4.22865 138.57 4.21399L171.712 4.26011Z" fill="#142533" stroke="#F9F9F9" stroke-miterlimit="10" stroke-linecap="round" stroke-linejoin="round"/>
<path d="M171.711 4.26019L182.363 11.513L142.44 151.814L131.785 144.454L171.711 4.26019Z" fill="#142533" stroke="#F9F9F9" stroke-miterlimit="10" stroke-linecap="round" stroke-linejoin="round"/>
<path d="M158.919 78.6176L157.423 78.7761C156.887 78.7944 156.473 79.2377 156.277 79.7809L152.126 93.2263C151.93 93.7695 152.166 94.4051 152.605 94.7119L153.156 95.1222C153.377 95.3292 153.806 95.3145 154.016 95.2001L155.18 94.7311L154.497 93.5743L153.939 92.9497L158.919 78.6176Z" fill="#142533" stroke="#F9F9F9" stroke-miterlimit="10" stroke-linecap="round" stroke-linejoin="round"/>
<path d="M153.834 92.9534L157.986 79.5079C158.175 78.7504 159.128 78.396 159.789 78.9098C160.335 79.2129 160.465 79.8522 160.269 80.3954L156.021 94.166C155.829 94.8163 155.086 95.0562 154.643 94.6423L154.421 94.4353C153.875 94.1321 153.638 93.4965 153.834 92.9534Z" fill="#142533" stroke="#F9F9F9" stroke-miterlimit="10" stroke-linecap="round" stroke-linejoin="round"/>
<path d="M156.118 24.9634L140.448 24.6412L123.271 83.6996L138.56 85.4295L156.118 24.9634Z" fill="#142533" stroke="#F9F9F9" stroke-miterlimit="10" stroke-linecap="round" stroke-linejoin="round"/>
<path d="M21.3281 191.791L110.965 103.325C110.965 103.325 119.711 95.6229 128.598 98.3228C137.592 101.019 145.291 112.879 135.627 128.23C134.001 130.86 130.894 134.078 128.514 136.627L37.8311 225.88L21.3281 191.791Z" fill="#F9F9F9" stroke="#142533" stroke-miterlimit="10" stroke-linecap="round" stroke-linejoin="round"/>
<path d="M115.235 149.741L37.8724 223.947C37.1444 224.616 37.4034 225.895 38.3814 226.29L49.8984 230.617C50.4414 230.813 50.9734 230.687 51.3904 230.351L132.769 151.287L115.235 149.741Z" fill="#F9F9F9" stroke="#142533" stroke-miterlimit="10" stroke-linecap="round" stroke-linejoin="round"/>
<path d="M128.858 124.983C133.083 120.105 132.809 112.944 128.246 108.989C123.682 105.033 116.558 105.781 112.332 110.659C108.107 115.537 108.381 122.698 112.944 126.653C117.508 130.609 124.632 129.861 128.858 124.983Z" fill="#F9F9F9" stroke="#142533" stroke-miterlimit="10" stroke-linecap="round" stroke-linejoin="round"/>
<path d="M127.075 123.438C130.564 119.41 130.491 113.63 126.912 110.528C123.333 107.426 117.603 108.176 114.114 112.204C110.626 116.231 110.699 122.011 114.278 125.114C117.857 128.216 123.587 127.466 127.075 123.438Z" fill="#F9F9F9" stroke="#142533" stroke-miterlimit="10" stroke-linecap="round" stroke-linejoin="round"/>
<path d="M49.8978 180.407L49.1738 181.183L53.3118 189.302L57.3548 185.194L57.0108 184.563L53.6898 187.787L49.8978 180.407Z" fill="#142533"/>
<path d="M56.2464 181.048C55.7734 179.777 56.2614 178.366 57.0894 177.479C57.8134 176.703 58.7774 176.67 59.4604 177.827L56.2464 181.048ZM56.7464 176.847C55.3974 178.181 54.8314 180.453 55.7584 182.46L55.8724 182.67C56.7844 184.248 58.5024 184.297 59.9584 182.96L60.0614 182.849C60.7894 182.18 61.2924 181.197 61.5764 180.115L60.9234 179.815C60.7384 180.68 60.3354 181.445 59.7144 182.11C58.6764 183.111 57.3944 183.262 56.5934 181.787L60.5354 177.897C60.5354 177.897 60.4174 177.58 60.3064 177.476C59.5014 175.894 58.1984 175.403 56.7464 176.847Z" fill="#142533"/>
<path d="M64.5844 177.115C63.6534 178.113 62.4634 177.831 61.7694 176.353C60.9684 174.879 61.3414 173.257 62.1694 172.37C63.3114 171.258 64.4044 171.864 64.9844 173.132C65.8994 174.817 65.4154 176.336 64.5844 177.115ZM63.0684 167.297L62.3404 167.965L63.8324 170.811C63.9434 170.915 63.9504 171.129 64.0614 171.232C63.4034 170.826 62.5544 171.069 61.9334 171.734C61.9334 171.734 61.8264 171.738 61.8294 171.845C60.4814 173.179 60.1264 175.337 61.0494 177.236C61.9684 179.028 63.4824 179.406 64.8314 178.072C66.1804 176.739 66.0174 175.135 66.0174 175.135C66.0254 175.349 66.1364 175.453 66.2464 175.556L66.5904 176.188L67.2104 175.523L63.0684 167.297Z" fill="#142533"/>
<path d="M69.8687 171.677C68.8297 172.678 67.7517 172.501 67.0577 171.023C66.3667 169.651 66.5337 168.251 67.4647 167.254C68.3997 166.363 69.3557 166.116 70.2717 167.801C71.0837 169.597 70.6997 170.898 69.8687 171.677ZM67.0137 166.625C65.6657 167.959 65.4136 170.006 66.3326 171.798C67.2526 173.591 68.7627 173.861 70.1117 172.527C70.9427 171.748 71.2346 170.88 71.2016 169.915C71.3126 170.019 71.3207 170.233 71.4307 170.336L71.6637 170.865C72.3507 172.129 71.8587 173.433 70.8207 174.434C70.2997 174.881 69.7746 175.221 69.2466 175.454L69.2757 176.311C69.9117 176.075 70.6507 175.727 71.1637 175.066C72.4087 173.843 73.1997 171.885 72.2807 170.093L69.2977 164.401L68.6767 165.066L69.0197 165.698L69.1346 165.909C69.1346 165.909 68.3627 165.292 67.0137 166.625Z" fill="#142533"/>
<path d="M71.9063 165.385C71.4333 164.114 71.9213 162.703 72.7493 161.816C73.4733 161.04 74.4373 161.007 75.1203 162.164L71.9063 165.385ZM72.5123 161.18C71.1643 162.514 70.5983 164.786 71.5213 166.686L71.6353 166.896C72.5473 168.474 74.2653 168.523 75.7213 167.186L75.8243 167.075C76.5523 166.406 77.0553 165.424 77.3403 164.341L76.6863 164.041C76.5013 164.906 76.0983 165.671 75.4773 166.336C74.4393 167.337 73.1573 167.488 72.3563 166.013L76.2983 162.124C76.2983 162.124 76.1803 161.806 76.0703 161.702C75.2683 160.228 73.8573 159.74 72.5123 161.18Z" fill="#142533"/>
<path d="M77.4906 156.182C76.6586 156.962 76.4886 158.255 76.6326 159.323C76.6326 159.323 76.5176 159.112 76.3996 158.794L75.8276 157.741L75.0996 158.41L78.0866 164.208L78.8146 163.54L77.5516 161.115C77.3226 160.694 77.2006 160.269 77.0796 159.844C76.8286 158.78 77.1096 157.59 77.8336 156.814C77.9366 156.703 78.0446 156.7 78.1476 156.589L77.8006 155.85C77.7006 156.068 77.5936 156.071 77.4906 156.182Z" fill="#142533"/>
<path d="M73.2411 16.2256V47.213C72.7051 51.1803 71.7401 54.7187 70.5611 58.0426V58.1498C62.0931 81.0955 39.7981 88.1722 37.1181 88.9227C34.4391 88.1722 12.2511 80.9883 3.67609 58.1498V58.0426C2.49709 54.7187 1.53209 51.1803 0.996094 47.213V16.2256L37.1181 1L73.2411 16.2256Z" fill="#F9F9F9" stroke="#142533" stroke-miterlimit="10" stroke-linecap="round" stroke-linejoin="round"/>
<path d="M39.0497 49.7863H35.1907C30.5817 49.7863 26.7227 46.0335 26.7227 41.3157V30.2718C26.7227 25.6612 30.4747 21.8011 35.1907 21.8011H39.0497C43.6587 21.8011 47.5177 25.5539 47.5177 30.2718V41.3157C47.5177 45.9263 43.6587 49.7863 39.0497 49.7863Z" stroke="#41CCB4" stroke-width="3" stroke-miterlimit="10" stroke-linecap="round" stroke-linejoin="round"/>
<path d="M49.3386 59.0075H25.5426C22.5416 59.0075 20.1836 56.6486 20.1836 53.6463V39.6002C20.1836 36.5979 22.5416 34.239 25.5426 34.239H49.3386C52.3396 34.239 54.6976 36.5979 54.6976 39.6002V53.6463C54.8046 56.6486 52.3396 59.0075 49.3386 59.0075Z" fill="#41CCB4"/>
<path d="M33.1523 46.5697L35.9393 50.6442L41.7273 42.4952" stroke="white" stroke-width="2" stroke-miterlimit="10" stroke-linecap="round" stroke-linejoin="round"/>
</svg>
