<svg width="175" height="125" viewBox="0 0 175 125" fill="none" xmlns="http://www.w3.org/2000/svg">
<path d="M159.293 117.687L159.172 116.546C159.158 116.137 158.82 115.822 158.406 115.673L148.153 112.507C147.739 112.357 147.254 112.537 147.021 112.873L146.708 113.292C146.55 113.462 146.561 113.788 146.648 113.949L147.006 114.836L147.888 114.315L148.364 113.89L159.293 117.687Z" fill="#142533" stroke="#F9F9F9" stroke-miterlimit="10" stroke-linecap="round" stroke-linejoin="round"/>
<path d="M148.359 113.727L158.612 116.892C159.189 117.037 159.459 117.763 159.068 118.267C158.836 118.684 158.349 118.783 157.935 118.633L147.434 115.394C146.938 115.248 146.755 114.681 147.071 114.343L147.229 114.174C147.378 113.761 147.863 113.58 148.359 113.727Z" fill="#142533" stroke="#F9F9F9" stroke-miterlimit="10" stroke-linecap="round" stroke-linejoin="round"/>
<path d="M10.7754 18.6589L1.4679 23.9662" stroke="#142533" stroke-miterlimit="10" stroke-linecap="round" stroke-linejoin="round"/>
<path d="M35.2994 18.1475L32.4178 15.2201L27.9966 17.4978L31.8924 21.3715L35.1896 19.7046C35.7501 19.3584 35.8911 18.6995 35.2994 18.1475Z" fill="#142533"/>
<path d="M31.4902 14.3533L30.9831 13.8798C30.3914 13.3277 29.484 13.1134 28.8419 13.4627L28.2784 13.7273L29.802 15.2287L31.4902 14.3533Z" fill="#142533"/>
<path d="M28.7559 15.755L27.3139 14.2505L25.6257 15.1259L27.0676 16.6304L28.7559 15.755Z" fill="#142533"/>
<path d="M30.8516 21.9796L29.3273 20.4774L27.6398 21.3536L28.1468 21.8263C28.7378 22.3784 29.6452 22.5935 30.288 22.2442L30.8516 21.9796Z" fill="#142533"/>
<path d="M28.4746 19.5259L26.9503 18.0245L25.2628 18.8999L26.7864 20.4021L28.4746 19.5259Z" fill="#142533"/>
<path d="M26.0215 17.1564L24.4979 15.655L23.9344 15.9196C23.2916 16.2688 23.2321 16.9253 23.8269 17.559L24.334 18.0326L26.0215 17.1564Z" fill="#142533"/>
<path d="M63.0196 72.7289L89.1433 99.805L90.4922 100.985C86.3638 102.272 81.036 101.963 75.6235 99.2042C73.4602 98.1336 71.1642 95.5951 69.2205 93.7803L62.0969 86.418L63.0196 72.7289Z" fill="#F9F9F9" stroke="#142533" stroke-miterlimit="10" stroke-linecap="round" stroke-linejoin="round"/>
<path d="M69.1113 59.5172L63.4495 66.1718L61.4494 93.8007L67.0616 85.6759L69.1113 59.5172Z" fill="#142533" stroke="#F9F9F9" stroke-miterlimit="10" stroke-linecap="round" stroke-linejoin="round"/>
<path d="M173.965 116.122L67.1438 85.6729L69.1127 59.5172L173.485 90.1307C173.814 90.2016 173.989 90.5226 174 90.8497L173.965 116.122Z" fill="#142533" stroke="#F9F9F9" stroke-miterlimit="10" stroke-linecap="round" stroke-linejoin="round"/>
<path d="M173.965 116.121L168.434 124.243L61.45 93.8005L67.0623 85.6757L173.965 116.121Z" fill="#142533" stroke="#F9F9F9" stroke-miterlimit="10" stroke-linecap="round" stroke-linejoin="round"/>
<path d="M117.264 106.366L117.143 105.226C117.129 104.817 116.791 104.501 116.377 104.352L106.124 101.187C105.71 101.037 105.225 101.217 104.991 101.552L104.678 101.972C104.521 102.14 104.532 102.468 104.619 102.628L104.977 103.515L105.859 102.994L106.335 102.569L117.264 106.366Z" fill="#142533" stroke="#F9F9F9" stroke-miterlimit="10" stroke-linecap="round" stroke-linejoin="round"/>
<path d="M106.333 102.488L116.586 105.655C117.164 105.799 117.434 106.525 117.042 107.029C116.811 107.446 116.324 107.545 115.909 107.395L105.409 104.156C104.913 104.01 104.73 103.443 105.046 103.105L105.203 102.936C105.435 102.52 105.919 102.339 106.333 102.488Z" fill="#142533" stroke="#F9F9F9" stroke-miterlimit="10" stroke-linecap="round" stroke-linejoin="round"/>
<path d="M158.178 104.231L158.424 92.2818L113.39 79.1837L112.071 90.8421L158.178 104.231Z" fill="#142533" stroke="#F9F9F9" stroke-miterlimit="10" stroke-linecap="round" stroke-linejoin="round"/>
<path d="M30.9654 1.4483L98.4238 69.7997C98.4238 69.7997 104.297 76.4688 102.238 83.2455C100.182 90.1037 91.1385 95.9745 79.4329 88.6053C77.4274 87.3655 74.9736 84.9963 73.0299 83.1814L4.97141 14.0324L30.9654 1.4483Z" fill="#F9F9F9" stroke="#142533" stroke-miterlimit="10" stroke-linecap="round" stroke-linejoin="round"/>
<path d="M63.0313 73.0559L6.44664 14.0639C5.9365 13.5087 4.96123 13.7062 4.66003 14.452L1.36054 23.2341C1.21108 23.6482 1.30717 24.0538 1.56338 24.3718L61.8524 86.4262L63.0313 73.0559Z" fill="#F9F9F9" stroke="#142533" stroke-miterlimit="10" stroke-linecap="round" stroke-linejoin="round"/>
<path d="M81.9085 83.4436C85.6281 86.6653 91.0886 86.4563 94.1045 82.9769C97.1211 79.4967 96.5507 74.0644 92.831 70.8419C89.1114 67.6202 83.6509 67.8291 80.6351 71.3086C77.6185 74.7888 78.1889 80.2211 81.9085 83.4436Z" fill="#F9F9F9" stroke="#142533" stroke-miterlimit="10" stroke-linecap="round" stroke-linejoin="round"/>
<path d="M83.0877 82.0839C86.1592 84.7444 90.5667 84.6887 92.9321 81.9596C95.2974 79.2305 94.7255 74.8612 91.6541 72.2007C88.5833 69.541 84.1759 69.5966 81.8097 72.3257C79.4444 75.0548 80.0163 79.4242 83.0877 82.0839Z" fill="#F9F9F9" stroke="#142533" stroke-miterlimit="10" stroke-linecap="round" stroke-linejoin="round"/>
<path d="M39.6465 23.2337L39.0548 22.6816L32.8637 25.837L35.9962 28.9199L36.4774 28.6576L34.019 26.1252L39.6465 23.2337Z" fill="#142533"/>
<path d="M39.1576 28.0748C40.1268 27.7141 41.2027 28.0862 41.8791 28.7176C42.4708 29.2697 42.496 30.0047 41.6137 30.5256L39.1576 28.0748ZM42.361 28.456C41.3438 27.4274 39.6113 26.9958 38.0809 27.7026L37.9208 27.7896C36.7175 28.485 36.6801 29.795 37.6996 30.9053L37.7843 30.9838C38.2944 31.539 39.044 31.9225 39.869 32.1391L40.0978 31.6411C39.4382 31.5001 38.8549 31.1928 38.3478 30.7192C37.5845 29.9277 37.4694 28.9502 38.5941 28.3394L41.5603 31.3453C41.5603 31.3453 41.8021 31.2553 41.8814 31.1707C43.0877 30.5568 43.4621 29.5632 42.361 28.456Z" fill="#142533"/>
<path d="M42.158 34.4327C41.397 33.7228 41.612 32.8154 42.739 32.2862C43.863 31.6754 45.0998 31.9598 45.7762 32.5912C46.6241 33.462 46.162 34.2955 45.1951 34.7377C43.9103 35.4355 42.752 35.0664 42.158 34.4327ZM49.6445 33.2767L49.1352 32.7216L46.965 33.8593C46.8857 33.9439 46.7225 33.9493 46.644 34.0339C46.9536 33.5322 46.7683 32.8848 46.2612 32.4113C46.2612 32.4113 46.2581 32.3297 46.1765 32.332C45.1593 31.3041 43.5138 31.0334 42.0657 31.7372C40.6992 32.4379 40.411 33.5924 41.4282 34.6211C42.4447 35.6497 43.6678 35.5255 43.6678 35.5255C43.5046 35.5316 43.4253 35.6162 43.3468 35.7001L42.8648 35.9624L43.3719 36.4352L49.6445 33.2767Z" fill="#142533"/>
<path d="M46.3034 38.4622C45.5401 37.6699 45.675 36.8479 46.8021 36.3187C47.8483 35.7918 48.9158 35.9191 49.6761 36.629C50.3555 37.342 50.5438 38.071 49.259 38.7695C47.8894 39.3887 46.8974 39.0958 46.3034 38.4622ZM50.1557 36.2851C49.1385 35.2572 47.5776 35.0651 46.2111 35.7658C44.8439 36.4674 44.638 37.6188 45.6552 38.6475C46.2492 39.2811 46.9111 39.5038 47.647 39.4786C47.5677 39.5633 47.4045 39.5694 47.3259 39.6533L46.9225 39.8309C45.9587 40.3548 44.9644 39.9796 44.2011 39.1881C43.8602 38.7908 43.6009 38.3905 43.4233 37.9879L42.7698 38.01C42.9497 38.495 43.2151 39.0585 43.7191 39.4497C44.6517 40.399 46.1448 41.0022 47.5112 40.3014L51.8516 38.0268L51.3445 37.5532L50.8626 37.8148L50.7017 37.9025C50.7017 37.9025 51.1721 37.3138 50.1557 36.2851Z" fill="#142533"/>
<path d="M51.1015 40.0159C52.0707 39.6552 53.1466 40.0273 53.823 40.6587C54.4147 41.2108 54.4399 41.9459 53.5576 42.4667L51.1015 40.0159ZM54.308 40.478C53.2908 39.4501 51.5583 39.0185 50.1095 39.7223L49.9493 39.8092C48.7461 40.5047 48.7087 41.8147 49.7282 42.925L49.8128 43.0035C50.323 43.5586 51.0718 43.9422 51.8976 44.1595L52.1264 43.6608C51.4668 43.5197 50.8834 43.2124 50.3764 42.7389C49.6131 41.9474 49.4979 40.9698 50.6227 40.359L53.5882 43.3649C53.5882 43.3649 53.8306 43.275 53.9099 43.1911C55.0339 42.5795 55.406 41.5036 54.308 40.478Z" fill="#142533"/>
<path d="M58.1179 44.2742C57.5232 43.6397 56.5372 43.5101 55.7228 43.6199C55.7228 43.6199 55.8837 43.5322 56.1262 43.4422L56.9291 43.0061L56.419 42.4509L51.9978 44.7286L52.5072 45.2837L54.3564 44.3207C54.6774 44.146 55.0015 44.053 55.3255 43.9607C56.1369 43.7693 57.0443 43.9836 57.636 44.5357C57.7207 44.6142 57.7229 44.6966 57.8076 44.7751L58.3711 44.5105C58.2049 44.4343 58.2026 44.3527 58.1179 44.2742Z" fill="#142533"/>
</svg>
