<svg width="132" height="47" viewBox="0 0 132 47" fill="none" xmlns="http://www.w3.org/2000/svg">
<path d="M5.58 36.504L3.528 13.32C4.272 13.08 5.208 12.84 6.336 12.6C7.488 12.336 8.748 12.12 10.116 11.952C11.484 11.784 12.864 11.7 14.256 11.7C15.6 11.7 16.908 11.832 18.18 12.096C19.476 12.36 20.628 12.804 21.636 13.428C22.068 14.724 22.284 15.96 22.284 17.136C22.284 19.08 21.72 20.784 20.592 22.248C19.488 23.688 18.012 24.9 16.164 25.884C14.316 26.844 12.276 27.576 10.044 28.08L9.18 36.144L5.58 36.504ZM10.296 25.632C11.928 24.744 13.176 23.616 14.04 22.248C14.904 20.856 15.336 19.5 15.336 18.18C15.336 17.34 15.144 16.56 14.76 15.84C14.4 15.096 13.836 14.496 13.068 14.04C12.828 14.04 12.564 14.064 12.276 14.112C12.012 14.16 11.748 14.22 11.484 14.292L10.296 25.632ZM30.951 36.864C29.247 36.864 27.795 36.66 26.595 36.252C25.419 35.868 24.459 35.376 23.715 34.776C23.523 33.816 23.379 32.892 23.283 32.004C23.211 31.092 23.175 30.216 23.175 29.376C23.175 27.696 23.415 26.136 23.895 24.696C24.399 23.256 25.011 21.984 25.731 20.88C26.475 19.752 27.231 18.828 27.999 18.108C28.767 17.364 29.415 16.86 29.943 16.596C31.023 17.148 32.091 17.82 33.147 18.612C34.203 19.404 35.163 20.328 36.027 21.384C36.915 22.44 37.623 23.628 38.151 24.948C38.679 26.268 38.943 27.744 38.943 29.376C38.943 31.032 38.715 32.412 38.259 33.516C37.803 34.62 36.999 35.448 35.847 36C34.695 36.576 33.063 36.864 30.951 36.864ZM29.007 33.732C29.919 33.732 30.831 33.672 31.743 33.552C32.679 33.408 33.495 33.216 34.191 32.976C34.383 32.208 34.527 31.44 34.623 30.672C34.719 29.904 34.767 29.148 34.767 28.404C34.767 26.124 34.287 24.036 33.327 22.14C31.983 22.836 30.795 23.808 29.763 25.056C28.731 26.28 27.915 27.636 27.315 29.124C26.739 30.588 26.451 32.052 26.451 33.516C27.219 33.66 28.071 33.732 29.007 33.732ZM50.3221 36.864C48.6181 36.864 47.1661 36.66 45.9661 36.252C44.7901 35.868 43.8301 35.376 43.0861 34.776C42.8941 33.816 42.7501 32.892 42.6541 32.004C42.5821 31.092 42.5461 30.216 42.5461 29.376C42.5461 27.696 42.7861 26.136 43.2661 24.696C43.7701 23.256 44.3821 21.984 45.1021 20.88C45.8461 19.752 46.6021 18.828 47.3701 18.108C48.1381 17.364 48.7861 16.86 49.3141 16.596C50.3941 17.148 51.4621 17.82 52.5181 18.612C53.5741 19.404 54.5341 20.328 55.3981 21.384C56.2861 22.44 56.9941 23.628 57.5221 24.948C58.0501 26.268 58.3141 27.744 58.3141 29.376C58.3141 31.032 58.0861 32.412 57.6301 33.516C57.1741 34.62 56.3701 35.448 55.2181 36C54.0661 36.576 52.4341 36.864 50.3221 36.864ZM48.3781 33.732C49.2901 33.732 50.2021 33.672 51.1141 33.552C52.0501 33.408 52.8661 33.216 53.5621 32.976C53.7541 32.208 53.8981 31.44 53.9941 30.672C54.0901 29.904 54.1381 29.148 54.1381 28.404C54.1381 26.124 53.6581 24.036 52.6981 22.14C51.3541 22.836 50.1661 23.808 49.1341 25.056C48.1021 26.28 47.2861 27.636 46.6861 29.124C46.1101 30.588 45.8221 32.052 45.8221 33.516C46.5901 33.66 47.4421 33.732 48.3781 33.732ZM64.4732 36.54L62.6372 11.412L70.3412 10.224L68.0372 36.216L64.4732 36.54ZM83.7878 36.864C81.9158 36.864 80.2598 36.696 78.8198 36.36C77.3798 36.024 76.1798 35.484 75.2197 34.74C75.0038 33.78 74.8478 32.916 74.7518 32.148C74.6798 31.356 74.6438 30.612 74.6438 29.916C74.6438 27.78 74.9678 25.824 75.6158 24.048C76.2878 22.272 77.1398 20.748 78.1718 19.476C79.2038 18.18 80.2718 17.22 81.3758 16.596C82.3598 16.98 83.3558 17.448 84.3638 18C85.3958 18.528 86.3438 19.152 87.2078 19.872C88.0718 20.592 88.7678 21.408 89.2958 22.32C89.8238 23.208 90.0878 24.192 90.0878 25.272C90.0878 26.4 89.8838 27.348 89.4758 28.116C89.0918 28.86 88.3838 29.424 87.3518 29.808C86.3198 30.192 84.8318 30.384 82.8878 30.384C82.0718 30.384 81.2798 30.348 80.5118 30.276C79.7678 30.204 79.1198 30.108 78.5678 29.988C78.1118 31.116 77.8838 32.292 77.8838 33.516C78.4358 33.588 79.0358 33.648 79.6838 33.696C80.3318 33.72 80.9558 33.732 81.5558 33.732C82.6838 33.732 83.8358 33.648 85.0118 33.48C86.2118 33.288 87.4118 32.976 88.6118 32.544L89.6918 36.036C88.7318 36.348 87.7478 36.564 86.7398 36.684C85.7318 36.804 84.7478 36.864 83.7878 36.864ZM80.7998 28.332C81.7118 28.332 82.6238 28.284 83.5358 28.188C84.4718 28.092 85.2878 27.972 85.9838 27.828C86.0558 27.348 86.0918 26.892 86.0918 26.46C86.0918 25.596 85.9718 24.828 85.7318 24.156C85.5158 23.46 85.2398 22.848 84.9038 22.32C83.5598 23.208 82.4438 24.144 81.5558 25.128C80.6918 26.112 79.9358 27.168 79.2878 28.296C79.5278 28.32 79.7798 28.332 80.0438 28.332C80.3078 28.332 80.5598 28.332 80.7998 28.332ZM97.5102 36.54L95.9622 21.996L92.6502 22.464L92.4342 18.756L95.6022 18.612L95.0622 13.572L104.026 12.384L103.306 18.216L106.87 18.036L106.762 20.448L102.946 20.988L101.074 36.216L97.5102 36.54ZM111.934 36.54L110.098 11.412L117.802 10.224L116.47 25.056H116.794C117.754 22.68 118.894 20.772 120.214 19.332C121.558 17.892 122.974 17.172 124.462 17.172C124.894 17.172 125.326 17.244 125.758 17.388C126.31 18.06 126.778 18.984 127.162 20.16C127.546 21.312 127.858 22.596 128.098 24.012C128.338 25.428 128.518 26.88 128.638 28.368C128.758 29.832 128.842 31.236 128.89 32.58C128.938 33.9 128.962 35.04 128.962 36L122.482 36.54C122.482 34.212 122.458 32.196 122.41 30.492C122.362 28.788 122.29 27.228 122.194 25.812C122.122 24.372 122.014 22.92 121.87 21.456C121.414 21.624 120.886 21.936 120.286 22.392C119.71 22.848 119.122 23.592 118.522 24.624C117.922 25.656 117.358 27.108 116.83 28.98C116.302 30.828 115.858 33.24 115.498 36.216L111.934 36.54Z" fill="#D77B62"/>
</svg>
